<svg xmlns="http://www.w3.org/2000/svg" width="266" height="73" version="1.0" viewBox="0 0 199.5 54.75"><defs><clipPath id="a"><path d="M.203 0h52.395v54.5H.203Zm0 0"/></clipPath><clipPath id="b"><path d="M30.3 25.457H6.915a1.363 1.363 0 0 1-1.316-1.73L12.02.997a1.365 1.365 0 0 1 1.316-.993h23.387c.906 0 1.562.86 1.316 1.726l-6.418 22.73c-.168.59-.707.997-1.32.997ZM15.114 42.613l3.305-11.703a1.36 1.36 0 0 0-1.32-1.726H5.078c-.613 0-1.152.406-1.316.992L.453 41.879a1.364 1.364 0 0 0 1.32 1.726h12.02c.613 0 1.152-.402 1.32-.992Zm6.082-12.437-6.422 22.73a1.367 1.367 0 0 0 1.32 1.73H39.48c.614 0 1.153-.406 1.317-.995l6.422-22.73a1.364 1.364 0 0 0-1.32-1.727H22.511c-.614 0-1.153.406-1.317.992Zm16.508-18.153-3.305 11.704c-.246.867.41 1.73 1.317 1.73h12.023c.614 0 1.153-.406 1.317-.996l3.304-11.703a1.36 1.36 0 0 0-1.316-1.727H39.02c-.614 0-1.153.406-1.317.992Zm0 0"/></clipPath><linearGradient id="c" x1="114.296" x2="358.181" y1="-47.634" y2="546.561" gradientTransform="matrix(.10998 0 0 .10926 .403 .003)" gradientUnits="userSpaceOnUse"><stop offset="0" stop-color="#00FCA8"/><stop offset=".063" stop-color="#00FCA8"/><stop offset=".094" stop-color="#00FCA8"/><stop offset=".102" stop-color="#00FCA9"/><stop offset=".109" stop-color="#01FBAA"/><stop offset=".117" stop-color="#01FBAB"/><stop offset=".125" stop-color="#01FBAC"/><stop offset=".133" stop-color="#01FAAC"/><stop offset=".141" stop-color="#02FAAD"/><stop offset=".148" stop-color="#02F9AE"/><stop offset=".156" stop-color="#02F9AF"/><stop offset=".164" stop-color="#03F9B0"/><stop offset=".172" stop-color="#03F8B1"/><stop offset=".18" stop-color="#03F8B2"/><stop offset=".188" stop-color="#03F8B3"/><stop offset=".195" stop-color="#04F7B4"/><stop offset=".203" stop-color="#04F7B5"/><stop offset=".211" stop-color="#04F7B6"/><stop offset=".219" stop-color="#05F6B7"/><stop offset=".227" stop-color="#05F6B7"/><stop offset=".234" stop-color="#05F6B8"/><stop offset=".242" stop-color="#06F5B9"/><stop offset=".25" stop-color="#06F5BA"/><stop offset=".258" stop-color="#06F4BB"/><stop offset=".266" stop-color="#06F4BC"/><stop offset=".273" stop-color="#07F4BD"/><stop offset=".281" stop-color="#07F3BE"/><stop offset=".282" stop-color="#07F3BF"/><stop offset=".289" stop-color="#07F3BF"/><stop offset=".297" stop-color="#08F3C0"/><stop offset=".305" stop-color="#08F2C1"/><stop offset=".313" stop-color="#08F2C2"/><stop offset=".32" stop-color="#09F2C2"/><stop offset=".328" stop-color="#09F1C3"/><stop offset=".336" stop-color="#09F1C4"/><stop offset=".344" stop-color="#09F1C5"/><stop offset=".352" stop-color="#0AF0C6"/><stop offset=".359" stop-color="#0AF0C7"/><stop offset=".367" stop-color="#0AF0C8"/><stop offset=".375" stop-color="#0BEFC9"/><stop offset=".383" stop-color="#0BEFCA"/><stop offset=".391" stop-color="#0BEECB"/><stop offset=".398" stop-color="#0BEECC"/><stop offset=".406" stop-color="#0CEECC"/><stop offset=".414" stop-color="#0CEDCD"/><stop offset=".422" stop-color="#0CEDCE"/><stop offset=".43" stop-color="#0DEDCF"/><stop offset=".438" stop-color="#0DECD0"/><stop offset=".445" stop-color="#0DECD1"/><stop offset=".453" stop-color="#0EECD2"/><stop offset=".461" stop-color="#0EEBD3"/><stop offset=".469" stop-color="#0EEBD4"/><stop offset=".477" stop-color="#0EEBD5"/><stop offset=".484" stop-color="#0FEAD6"/><stop offset=".492" stop-color="#0FEAD7"/><stop offset=".5" stop-color="#0FE9D7"/><stop offset=".508" stop-color="#10E9D8"/><stop offset=".516" stop-color="#10E9D9"/><stop offset=".523" stop-color="#10E8DA"/><stop offset=".531" stop-color="#10E8DB"/><stop offset=".539" stop-color="#11E8DC"/><stop offset=".547" stop-color="#11E7DD"/><stop offset=".555" stop-color="#11E7DE"/><stop offset=".563" stop-color="#12E7DF"/><stop offset=".57" stop-color="#12E6E0"/><stop offset=".578" stop-color="#12E6E1"/><stop offset=".586" stop-color="#13E6E2"/><stop offset=".594" stop-color="#13E5E2"/><stop offset=".602" stop-color="#13E5E3"/><stop offset=".609" stop-color="#13E4E4"/><stop offset=".617" stop-color="#14E4E5"/><stop offset=".625" stop-color="#14E4E6"/><stop offset=".633" stop-color="#14E3E7"/><stop offset=".641" stop-color="#15E3E8"/><stop offset=".648" stop-color="#15E3E9"/><stop offset=".656" stop-color="#15E2EA"/><stop offset=".664" stop-color="#15E2EB"/><stop offset=".672" stop-color="#16E2EC"/><stop offset=".68" stop-color="#16E1ED"/><stop offset=".688" stop-color="#16E1ED"/><stop offset=".695" stop-color="#17E1EE"/><stop offset=".703" stop-color="#17E0EF"/><stop offset=".711" stop-color="#17E0F0"/><stop offset=".718" stop-color="#18DFF1"/><stop offset=".719" stop-color="#18DFF2"/><stop offset=".727" stop-color="#18DFF2"/><stop offset=".734" stop-color="#18DFF3"/><stop offset=".742" stop-color="#18DEF4"/><stop offset=".75" stop-color="#19DEF5"/><stop offset=".758" stop-color="#19DEF6"/><stop offset=".766" stop-color="#19DDF7"/><stop offset=".773" stop-color="#1ADDF7"/><stop offset=".781" stop-color="#1ADDF8"/><stop offset=".789" stop-color="#1ADCF9"/><stop offset=".797" stop-color="#1BDCFA"/><stop offset=".805" stop-color="#1BDCFB"/><stop offset=".813" stop-color="#1BDBFC"/><stop offset=".82" stop-color="#1BDBFD"/><stop offset=".828" stop-color="#1CDAFE"/><stop offset=".844" stop-color="#1CDAFF"/><stop offset=".875" stop-color="#1CDAFF"/><stop offset="1" stop-color="#1CDAFF"/></linearGradient></defs><path fill="#fff" d="M60.39 42.18c-1.187 0-2.257-.207-3.203-.625-.937-.426-1.672-1.016-2.203-1.766-.531-.75-.808-1.617-.828-2.609h2.516a3.326 3.326 0 0 0 1.03 2.14c.614.575 1.509.86 2.688.86 1.114 0 1.993-.273 2.641-.828.645-.563.969-1.285.969-2.172 0-.688-.188-1.242-.563-1.672a3.48 3.48 0 0 0-1.422-.984c-.562-.227-1.328-.469-2.296-.719-1.188-.313-2.141-.625-2.86-.938a4.66 4.66 0 0 1-1.844-1.453c-.5-.664-.75-1.562-.75-2.687 0-.977.25-1.844.75-2.594.5-.758 1.196-1.348 2.094-1.766.906-.414 1.945-.625 3.125-.625 1.688 0 3.067.422 4.14 1.266 1.083.844 1.692 1.965 1.829 3.36h-2.578c-.094-.688-.461-1.29-1.094-1.813-.637-.531-1.48-.797-2.531-.797-.98 0-1.781.258-2.406.766-.618.511-.922 1.226-.922 2.14 0 .649.18 1.18.547 1.594.375.418.832.734 1.375.953.539.211 1.3.453 2.28.735 1.188.324 2.141.648 2.86.968.727.313 1.352.805 1.875 1.47.52.667.781 1.57.781 2.702 0 .875-.234 1.703-.703 2.485-.468.773-1.164 1.402-2.078 1.89-.906.48-1.98.719-3.219.719ZM68.965 34.852c0-1.438.29-2.703.875-3.797.594-1.102 1.398-1.953 2.422-2.547 1.02-.601 2.16-.906 3.422-.906 1.238 0 2.316.265 3.234.797.914.531 1.598 1.203 2.047 2.015v-2.578h2.375v14.156h-2.375v-2.64c-.469.836-1.168 1.523-2.094 2.062-.918.543-1.984.813-3.203.813-1.262 0-2.402-.305-3.422-.922-1.011-.625-1.812-1.492-2.406-2.61-.586-1.124-.875-2.406-.875-3.843Zm12 .031c0-1.062-.219-1.988-.656-2.781-.43-.801-1.012-1.41-1.75-1.828a4.69 4.69 0 0 0-2.406-.64c-.875 0-1.68.21-2.407.624-.718.418-1.297 1.024-1.734 1.813-.43.793-.64 1.718-.64 2.78 0 1.095.21 2.044.64 2.845.437.804 1.016 1.418 1.734 1.843a4.745 4.745 0 0 0 2.407.625c.875 0 1.675-.207 2.406-.625.738-.425 1.32-1.039 1.75-1.843.437-.801.656-1.739.656-2.813ZM104.34 27.57c1.101 0 2.085.231 2.953.688.863.461 1.546 1.149 2.046 2.063.5.906.75 2.015.75 3.328v8.343h-2.328v-8.015c0-1.406-.351-2.485-1.047-3.235-.699-.75-1.64-1.125-2.828-1.125-1.23 0-2.21.391-2.937 1.172-.719.782-1.078 1.914-1.078 3.391v7.812h-2.328v-8.015c0-1.406-.352-2.485-1.047-3.235-.7-.75-1.64-1.125-2.828-1.125-1.22 0-2.196.391-2.922 1.172-.72.782-1.078 1.914-1.078 3.391v7.812h-2.36V27.836h2.36v2.031a4.72 4.72 0 0 1 1.875-1.703c.78-.394 1.644-.593 2.593-.593 1.188 0 2.235.273 3.14.812.915.531 1.599 1.313 2.048 2.344a4.755 4.755 0 0 1 1.969-2.328c.914-.551 1.93-.828 3.046-.828ZM130.955 27.57c1.102 0 2.086.231 2.953.688.864.461 1.547 1.149 2.047 2.063.5.906.75 2.015.75 3.328v8.343h-2.328v-8.015c0-1.406-.352-2.485-1.047-3.235-.7-.75-1.64-1.125-2.828-1.125-1.23 0-2.21.391-2.937 1.172-.72.782-1.079 1.914-1.079 3.391v7.812h-2.328v-8.015c0-1.406-.351-2.485-1.047-3.235-.699-.75-1.64-1.125-2.828-1.125-1.218 0-2.195.391-2.922 1.172-.718.782-1.078 1.914-1.078 3.391v7.812h-2.36V27.836h2.36v2.031a4.72 4.72 0 0 1 1.875-1.703c.782-.394 1.645-.593 2.594-.593 1.188 0 2.234.273 3.14.812.915.531 1.598 1.313 2.048 2.344a4.755 4.755 0 0 1 1.968-2.328c.914-.551 1.93-.828 3.047-.828ZM141.758 25.524c-.449 0-.828-.149-1.14-.453a1.567 1.567 0 0 1-.453-1.141 1.574 1.574 0 0 1 1.593-1.61c.426 0 .79.157 1.094.47.3.312.453.695.453 1.14 0 .45-.152.828-.453 1.14a1.487 1.487 0 0 1-1.094.454Zm1.141 2.312v14.156h-2.36V27.836Zm0 0"/><path fill="#5ce1e6" d="M158.94 29.258c0 1.492-.515 2.734-1.546 3.734-1.024.993-2.578 1.485-4.672 1.485h-3.469v7.515h-2.36V23.977h5.829c2.031 0 3.57.496 4.625 1.484 1.062.98 1.594 2.246 1.594 3.797Zm-6.218 3.281c1.3 0 2.258-.285 2.875-.859.625-.57.937-1.379.937-2.422 0-2.226-1.273-3.344-3.812-3.344h-3.469v6.625ZM160.98 34.852c0-1.438.29-2.703.875-3.797.594-1.102 1.399-1.953 2.422-2.547 1.02-.601 2.16-.906 3.422-.906 1.238 0 2.317.265 3.235.797.914.531 1.597 1.203 2.046 2.015v-2.578h2.375v14.156h-2.375v-2.64c-.468.836-1.168 1.523-2.093 2.062-.918.543-1.985.813-3.203.813-1.262 0-2.403-.305-3.422-.922-1.012-.625-1.813-1.492-2.407-2.61-.585-1.124-.875-2.406-.875-3.843Zm12 .031c0-1.062-.218-1.988-.656-2.781-.43-.801-1.012-1.41-1.75-1.828a4.69 4.69 0 0 0-2.406-.64c-.875 0-1.68.21-2.406.624-.719.418-1.297 1.024-1.735 1.813-.43.793-.64 1.718-.64 2.78 0 1.095.21 2.044.64 2.845.438.804 1.016 1.418 1.735 1.843a4.745 4.745 0 0 0 2.406.625c.875 0 1.676-.207 2.406-.625.738-.425 1.32-1.039 1.75-1.843.438-.801.656-1.739.656-2.813ZM191.527 27.836l-8.531 20.828h-2.422l2.78-6.828-5.702-14h2.61l4.437 11.469 4.406-11.469Zm0 0"/><g clip-path="url(#a)"><g clip-path="url(#b)"><path fill="url(#c)" d="M.21.004V54.5h52.388V.004Zm0 0"/></g></g></svg>